<?xml version="1.0" standalone="no"?>
<!DOCTYPE svg PUBLIC "-//W3C//DTD SVG 20010904//EN"
 "http://www.w3.org/TR/2001/REC-SVG-20010904/DTD/svg10.dtd">
<svg version="1.0" xmlns="http://www.w3.org/2000/svg"
 width="512.000000pt" height="512.000000pt" viewBox="0 0 512.000000 512.000000"
 preserveAspectRatio="xMidYMid meet">
<metadata>
Created by potrace 1.14, written by Peter Selinger 2001-2017
</metadata>
<g transform="translate(0.000000,512.000000) scale(0.100000,-0.100000)"
fill="#000000" stroke="none">
<path d="M2139 4036 c-86 -31 -154 -92 -192 -175 -22 -45 -22 -56 -25 -658 -2
-371 -6 -613 -12 -613 -16 0 -82 40 -152 92 -37 27 -93 58 -125 70 -168 59
-360 -32 -423 -200 -43 -112 -15 -255 67 -348 38 -43 42 -48 258 -304 104
-124 192 -227 195 -230 3 -3 25 -30 50 -60 25 -30 51 -62 60 -70 8 -8 32 -36
52 -61 176 -220 449 -372 726 -405 78 -9 445 -10 537 -2 330 32 598 271 669
598 12 53 14 184 13 680 l-2 615 -25 49 c-33 65 -94 126 -155 155 -66 31 -171
37 -240 12 l-50 -17 -43 43 c-85 88 -213 120 -327 81 l-55 -18 -50 49 c-70 70
-139 94 -247 89 l-81 -4 -4 205 c-3 202 -4 207 -31 263 -54 109 -166 178 -290
178 -34 -1 -78 -7 -98 -14z"/>
</g>
</svg>
